<svg width="48" height="48" viewBox="0 0 48 48" fill="none" xmlns="http://www.w3.org/2000/svg">
  <!-- Clipboard -->
  <rect x="12" y="8" width="24" height="32" rx="2" stroke="#2563EB" stroke-width="2" fill="none"/>
  <rect x="14" y="6" width="20" height="4" rx="1" stroke="#2563EB" stroke-width="1.5" fill="none"/>
  <!-- Audit checklist -->
  <line x1="16" y1="16" x2="32" y2="16" stroke="#2563EB" stroke-width="1.5"/>
  <line x1="16" y1="20" x2="28" y2="20" stroke="#2563EB" stroke-width="1.5"/>
  <line x1="16" y1="24" x2="30" y2="24" stroke="#2563EB" stroke-width="1.5"/>
  <line x1="16" y1="28" x2="26" y2="28" stroke="#2563EB" stroke-width="1.5"/>
  <!-- Checkboxes -->
  <rect x="14" y="14" width="2" height="2" stroke="#2563EB" stroke-width="1" fill="none"/>
  <rect x="14" y="18" width="2" height="2" stroke="#2563EB" stroke-width="1" fill="none"/>
  <rect x="14" y="22" width="2" height="2" stroke="#2563EB" stroke-width="1" fill="none"/>
  <rect x="14" y="26" width="2" height="2" stroke="#2563EB" stroke-width="1" fill="none"/>
  <!-- Checkmarks -->
  <path d="M14.5 15l0.5 0.5l1-1" stroke="#2563EB" stroke-width="0.5" fill="none"/>
  <path d="M14.5 19l0.5 0.5l1-1" stroke="#2563EB" stroke-width="0.5" fill="none"/>
  <path d="M14.5 23l0.5 0.5l1-1" stroke="#2563EB" stroke-width="0.5" fill="none"/>
  <path d="M14.5 27l0.5 0.5l1-1" stroke="#2563EB" stroke-width="0.5" fill="none"/>
  <!-- Magnifying glass for audit -->
  <circle cx="36" cy="16" r="4" stroke="#2563EB" stroke-width="1.5" fill="none"/>
  <line x1="38" y1="18" x2="42" y2="22" stroke="#2563EB" stroke-width="1.5"/>
  <!-- Inventory boxes -->
  <rect x="16" y="32" width="6" height="4" rx="1" stroke="#2563EB" stroke-width="1" fill="none"/>
  <rect x="24" y="32" width="6" height="4" rx="1" stroke="#2563EB" stroke-width="1" fill="none"/>
  <rect x="32" y="32" width="6" height="4" rx="1" stroke="#2563EB" stroke-width="1" fill="none"/>
  <!-- Audit stamp -->
  <circle cx="24" cy="40" r="3" stroke="#2563EB" stroke-width="1" fill="none"/>
  <text x="24" y="42" text-anchor="middle" font-family="Arial" font-size="4" fill="#2563EB" font-weight="bold">✓</text>
</svg> 