<svg width="48" height="48" viewBox="0 0 48 48" fill="none" xmlns="http://www.w3.org/2000/svg">
  <!-- Presentation screen -->
  <rect x="8" y="12" width="32" height="20" rx="2" stroke="#2563EB" stroke-width="2" fill="none"/>
  <!-- Screen content -->
  <rect x="12" y="16" width="24" height="12" rx="1" stroke="#2563EB" stroke-width="1" fill="none"/>
  <line x1="14" y1="18" x2="34" y2="18" stroke="#2563EB" stroke-width="0.5"/>
  <line x1="14" y1="20" x2="30" y2="20" stroke="#2563EB" stroke-width="0.5"/>
  <line x1="14" y1="22" x2="32" y2="22" stroke="#2563EB" stroke-width="0.5"/>
  <line x1="14" y1="24" x2="28" y2="24" stroke="#2563EB" stroke-width="0.5"/>
  <!-- Equipment on screen -->
  <rect x="16" y="26" width="4" height="2" fill="#2563EB"/>
  <rect x="22" y="26" width="4" height="2" fill="#2563EB"/>
  <rect x="28" y="26" width="4" height="2" fill="#2563EB"/>
  <!-- Support person -->
  <circle cx="40" cy="16" r="3" stroke="#2563EB" stroke-width="1.5" fill="none"/>
  <path d="M37 19c0-1 1-2 3-2s3 1 3 2v2h-6z" stroke="#2563EB" stroke-width="1.5" fill="none"/>
  <!-- Support arrow -->
  <path d="M36 20l-2-2l2-2" stroke="#2563EB" stroke-width="1.5" fill="none"/>
  <!-- Demo equipment -->
  <rect x="12" y="36" width="8" height="6" rx="1" stroke="#2563EB" stroke-width="1" fill="none"/>
  <rect x="28" y="36" width="8" height="6" rx="1" stroke="#2563EB" stroke-width="1" fill="none"/>
  <line x1="14" y1="38" x2="18" y2="38" stroke="#2563EB" stroke-width="0.5"/>
  <line x1="30" y1="38" x2="34" y2="38" stroke="#2563EB" stroke-width="0.5"/>
</svg> 