<svg xmlns="http://www.w3.org/2000/svg" viewBox="0 0 64 64" fill="none">
  <defs>
    <linearGradient id="departmentsGradient" x1="0%" y1="0%" x2="100%" y2="100%">
      <stop offset="0%" style="stop-color:#1F5FFF;stop-opacity:1" />
      <stop offset="100%" style="stop-color:#4A90E2;stop-opacity:1" />
    </linearGradient>
  </defs>
  
  <!-- Background Circle -->
  <circle cx="32" cy="32" r="30" fill="url(#departmentsGradient)" opacity="0.1"/>
  
  <!-- Organizational Chart Structure -->
  <!-- Main Department -->
  <rect x="28" y="12" width="8" height="6" rx="2" stroke="url(#departmentsGradient)" stroke-width="2" fill="none"/>
  <line x1="32" y1="18" x2="32" y2="22" stroke="url(#departmentsGradient)" stroke-width="2" stroke-linecap="round"/>
  
  <!-- Sub-departments -->
  <rect x="16" y="24" width="6" height="4" rx="1" stroke="url(#departmentsGradient)" stroke-width="1.5" fill="none"/>
  <rect x="28" y="24" width="8" height="4" rx="1" stroke="url(#departmentsGradient)" stroke-width="1.5" fill="none"/>
  <rect x="42" y="24" width="6" height="4" rx="1" stroke="url(#departmentsGradient)" stroke-width="1.5" fill="none"/>
  
  <!-- Connecting Lines -->
  <line x1="19" y1="28" x2="19" y2="32" stroke="url(#departmentsGradient)" stroke-width="1.5" stroke-linecap="round"/>
  <line x1="32" y1="28" x2="32" y2="32" stroke="url(#departmentsGradient)" stroke-width="1.5" stroke-linecap="round"/>
  <line x1="45" y1="28" x2="45" y2="32" stroke="url(#departmentsGradient)" stroke-width="1.5" stroke-linecap="round"/>
  
  <!-- Teams/Units -->
  <rect x="12" y="34" width="4" height="3" rx="1" stroke="url(#departmentsGradient)" stroke-width="1" fill="none"/>
  <rect x="18" y="34" width="4" height="3" rx="1" stroke="url(#departmentsGradient)" stroke-width="1" fill="none"/>
  <rect x="24" y="34" width="4" height="3" rx="1" stroke="url(#departmentsGradient)" stroke-width="1" fill="none"/>
  <rect x="30" y="34" width="4" height="3" rx="1" stroke="url(#departmentsGradient)" stroke-width="1" fill="none"/>
  <rect x="36" y="34" width="4" height="3" rx="1" stroke="url(#departmentsGradient)" stroke-width="1" fill="none"/>
  <rect x="42" y="34" width="4" height="3" rx="1" stroke="url(#departmentsGradient)" stroke-width="1" fill="none"/>
  <rect x="48" y="34" width="4" height="3" rx="1" stroke="url(#departmentsGradient)" stroke-width="1" fill="none"/>
  
  <!-- People/Staff Icons -->
  <circle cx="14" cy="44" r="2" fill="url(#departmentsGradient)"/>
  <circle cx="20" cy="44" r="2" fill="url(#departmentsGradient)"/>
  <circle cx="26" cy="44" r="2" fill="url(#departmentsGradient)"/>
  <circle cx="32" cy="44" r="2" fill="url(#departmentsGradient)"/>
  <circle cx="38" cy="44" r="2" fill="url(#departmentsGradient)"/>
  <circle cx="44" cy="44" r="2" fill="url(#departmentsGradient)"/>
  <circle cx="50" cy="44" r="2" fill="url(#departmentsGradient)"/>
  
  <!-- Department Labels -->
  <line x1="14" y1="48" x2="18" y2="48" stroke="url(#departmentsGradient)" stroke-width="1" stroke-linecap="round"/>
  <line x1="32" y1="48" x2="36" y2="48" stroke="url(#departmentsGradient)" stroke-width="1" stroke-linecap="round"/>
  <line x1="50" y1="48" x2="54" y2="48" stroke="url(#departmentsGradient)" stroke-width="1" stroke-linecap="round"/>
  
  <!-- Flow Arrows -->
  <path d="M32 50 L34 52 L32 54 L30 52 Z" fill="url(#departmentsGradient)"/>
  <path d="M16 50 L18 52 L16 54 L14 52 Z" fill="url(#departmentsGradient)"/>
  <path d="M48 50 L50 52 L48 54 L46 52 Z" fill="url(#departmentsGradient)"/>
</svg> 