<svg xmlns="http://www.w3.org/2000/svg" viewBox="0 0 64 64" fill="none">
  <defs>
    <linearGradient id="feasibilityGradient" x1="0%" y1="0%" x2="100%" y2="100%">
      <stop offset="0%" style="stop-color:#1F5FFF;stop-opacity:1" />
      <stop offset="100%" style="stop-color:#4A90E2;stop-opacity:1" />
    </linearGradient>
  </defs>
  
  <!-- Background Circle -->
  <circle cx="32" cy="32" r="30" fill="url(#feasibilityGradient)" opacity="0.1"/>
  
  <!-- Checklist/Assessment -->
  <rect x="16" y="12" width="32" height="40" rx="4" stroke="url(#feasibilityGradient)" stroke-width="2" fill="none"/>
  
  <!-- Header -->
  <rect x="16" y="12" width="32" height="8" rx="4" fill="url(#feasibilityGradient)" opacity="0.2"/>
  <line x1="20" y1="16" x2="44" y2="16" stroke="url(#feasibilityGradient)" stroke-width="1.5" stroke-linecap="round"/>
  
  <!-- Checkboxes -->
  <rect x="20" y="24" width="4" height="4" stroke="url(#feasibilityGradient)" stroke-width="1.5" fill="none"/>
  <path d="M21 26 L22.5 27.5 L24 25" stroke="url(#feasibilityGradient)" stroke-width="1.5" stroke-linecap="round" stroke-linejoin="round"/>
  
  <rect x="20" y="32" width="4" height="4" stroke="url(#feasibilityGradient)" stroke-width="1.5" fill="none"/>
  <path d="M21 34 L22.5 35.5 L24 33" stroke="url(#feasibilityGradient)" stroke-width="1.5" stroke-linecap="round" stroke-linejoin="round"/>
  
  <rect x="20" y="40" width="4" height="4" stroke="url(#feasibilityGradient)" stroke-width="1.5" fill="none"/>
  
  <!-- Text Lines -->
  <line x1="28" y1="26" x2="40" y2="26" stroke="url(#feasibilityGradient)" stroke-width="1.5" stroke-linecap="round"/>
  <line x1="28" y1="34" x2="40" y2="34" stroke="url(#feasibilityGradient)" stroke-width="1.5" stroke-linecap="round"/>
  <line x1="28" y1="42" x2="36" y2="42" stroke="url(#feasibilityGradient)" stroke-width="1.5" stroke-linecap="round"/>
  
  <!-- Analysis Chart -->
  <circle cx="48" cy="20" r="8" stroke="url(#feasibilityGradient)" stroke-width="2" fill="none"/>
  <path d="M44 20 L46 18 L48 22 L50 16 L52 20" stroke="url(#feasibilityGradient)" stroke-width="2" stroke-linecap="round" stroke-linejoin="round" fill="none"/>
  
  <!-- Calculator/Financial -->
  <rect x="44" y="32" width="16" height="16" rx="2" stroke="url(#feasibilityGradient)" stroke-width="2" fill="none"/>
  <line x1="46" y1="36" x2="58" y2="36" stroke="url(#feasibilityGradient)" stroke-width="1" stroke-linecap="round"/>
  <line x1="46" y1="40" x2="58" y2="40" stroke="url(#feasibilityGradient)" stroke-width="1" stroke-linecap="round"/>
  <line x1="46" y1="44" x2="58" y2="44" stroke="url(#feasibilityGradient)" stroke-width="1" stroke-linecap="round"/>
</svg> 