<svg width="48" height="48" viewBox="0 0 48 48" fill="none" xmlns="http://www.w3.org/2000/svg">
  <!-- Wrench -->
  <path d="M16 20l8-8c2-2 5-2 7 0s2 5 0 7l-8 8" stroke="#2563EB" stroke-width="2" fill="none"/>
  <circle cx="24" cy="12" r="3" stroke="#2563EB" stroke-width="2" fill="none"/>
  <!-- Screwdriver -->
  <path d="M32 28l4-4M36 24l-4 4" stroke="#2563EB" stroke-width="2" fill="none"/>
  <rect x="34" y="26" width="2" height="8" rx="1" stroke="#2563EB" stroke-width="1.5" fill="none"/>
  <!-- Equipment box -->
  <rect x="12" y="32" width="16" height="10" rx="1" stroke="#2563EB" stroke-width="1.5" fill="none"/>
  <rect x="14" y="34" width="4" height="2" fill="#2563EB"/>
  <rect x="20" y="34" width="4" height="2" fill="#2563EB"/>
  <rect x="14" y="38" width="4" height="2" fill="#2563EB"/>
  <rect x="20" y="38" width="4" height="2" fill="#2563EB"/>
  <!-- Supervision eye -->
  <circle cx="36" cy="36" r="4" stroke="#2563EB" stroke-width="1.5" fill="none"/>
  <circle cx="36" cy="36" r="1.5" fill="#2563EB"/>
  <path d="M32 32l2 2M40 40l2 2" stroke="#2563EB" stroke-width="1" fill="none"/>
</svg> 