<svg xmlns="http://www.w3.org/2000/svg" viewBox="0 0 24 24" fill="none" stroke="currentColor" stroke-width="2" stroke-linecap="round" stroke-linejoin="round">
  <path d="M9 11H3a2 2 0 0 0-2 2v7a2 2 0 0 0 2 2h6a2 2 0 0 0 2-2v-7a2 2 0 0 0-2-2z"/>
  <path d="M21 11h-6a2 2 0 0 0-2 2v7a2 2 0 0 0 2 2h6a2 2 0 0 0 2-2v-7a2 2 0 0 0-2-2z"/>
  <path d="M9 3H3a2 2 0 0 0-2 2v7a2 2 0 0 0 2 2h6a2 2 0 0 0 2-2V5a2 2 0 0 0-2-2z"/>
  <path d="M21 3h-6a2 2 0 0 0-2 2v7a2 2 0 0 0 2 2h6a2 2 0 0 0 2-2V5a2 2 0 0 0-2-2z"/>
  <circle cx="6" cy="6" r="1"/>
  <circle cx="18" cy="6" r="1"/>
  <circle cx="6" cy="18" r="1"/>
  <circle cx="18" cy="18" r="1"/>
</svg> 