<svg width="40" height="40" viewBox="0 0 40 40" fill="none" xmlns="http://www.w3.org/2000/svg">
  <circle cx="20" cy="20" r="18" stroke="#2563eb" stroke-width="2" fill="none"/>
  <path d="M12 16c0-2.2 1.8-4 4-4s4 1.8 4 4-1.8 4-4 4-4-1.8-4-4z" fill="#2563eb"/>
  <path d="M20 16c0-2.2 1.8-4 4-4s4 1.8 4 4-1.8 4-4 4-4-1.8-4-4z" fill="#2563eb"/>
  <path d="M8 28c0-2.2 1.8-4 4-4s4 1.8 4 4-1.8 4-4 4-4-1.8-4-4z" fill="#2563eb"/>
  <path d="M24 28c0-2.2 1.8-4 4-4s4 1.8 4 4-1.8 4-4 4-4-1.8-4-4z" fill="#2563eb"/>
  <path d="M16 20l-4 8" stroke="#2563eb" stroke-width="2" stroke-linecap="round"/>
  <path d="M24 20l4 8" stroke="#2563eb" stroke-width="2" stroke-linecap="round"/>
</svg> 