<svg width="48" height="48" viewBox="0 0 48 48" fill="none" xmlns="http://www.w3.org/2000/svg">
  <path d="M12 20C12 15.5817 15.5817 12 20 12H28C32.4183 12 36 15.5817 36 20V28C36 32.4183 32.4183 36 28 36H20C15.5817 36 12 32.4183 12 28V20Z" fill="#1F5FFF" fill-opacity="0.1"/>
  <path d="M16 20C16 17.7909 17.7909 16 20 16H28C30.2091 16 32 17.7909 32 20V28C32 30.2091 30.2091 32 28 32H20C17.7909 32 16 30.2091 16 28V20Z" stroke="#1F5FFF" stroke-width="2"/>
  <path d="M20 24H28" stroke="#1F5FFF" stroke-width="2" stroke-linecap="round"/>
  <path d="M20 28H24" stroke="#1F5FFF" stroke-width="2" stroke-linecap="round"/>
  <circle cx="24" cy="40" r="4" fill="#1F5FFF" fill-opacity="0.1"/>
  <path d="M22 38L26 42" stroke="#1F5FFF" stroke-width="2" stroke-linecap="round"/>
  <path d="M26 38L22 42" stroke="#1F5FFF" stroke-width="2" stroke-linecap="round"/>
</svg> 