<svg width="48" height="48" viewBox="0 0 48 48" fill="none" xmlns="http://www.w3.org/2000/svg">
  <!-- Progress bar -->
  <rect x="8" y="20" width="32" height="8" rx="4" stroke="#2563EB" stroke-width="2" fill="none"/>
  <rect x="8" y="20" width="24" height="8" rx="4" fill="#2563EB" opacity="0.7"/>
  <!-- Progress markers -->
  <circle cx="12" cy="24" r="2" fill="#2563EB"/>
  <circle cx="20" cy="24" r="2" fill="#2563EB"/>
  <circle cx="28" cy="24" r="2" fill="#2563EB"/>
  <circle cx="36" cy="24" r="2" stroke="#2563EB" stroke-width="1.5" fill="none"/>
  <!-- Checkmarks -->
  <path d="M10 24l1 1l2-2" stroke="white" stroke-width="1" fill="none"/>
  <path d="M18 24l1 1l2-2" stroke="white" stroke-width="1" fill="none"/>
  <path d="M26 24l1 1l2-2" stroke="white" stroke-width="1" fill="none"/>
  <!-- Installation steps -->
  <rect x="8" y="32" width="8" height="6" rx="1" stroke="#2563EB" stroke-width="1" fill="none"/>
  <rect x="18" y="32" width="8" height="6" rx="1" stroke="#2563EB" stroke-width="1" fill="none"/>
  <rect x="28" y="32" width="8" height="6" rx="1" stroke="#2563EB" stroke-width="1" fill="none"/>
  <!-- Step labels -->
  <text x="12" y="36" text-anchor="middle" font-family="Arial" font-size="4" fill="#2563EB">1</text>
  <text x="22" y="36" text-anchor="middle" font-family="Arial" font-size="4" fill="#2563EB">2</text>
  <text x="32" y="36" text-anchor="middle" font-family="Arial" font-size="4" fill="#2563EB">3</text>
  <!-- Tracking lines -->
  <line x1="12" y1="30" x2="12" y2="32" stroke="#2563EB" stroke-width="1"/>
  <line x1="20" y1="30" x2="20" y2="32" stroke="#2563EB" stroke-width="1"/>
  <line x1="28" y1="30" x2="28" y2="32" stroke="#2563EB" stroke-width="1"/>
  <line x1="36" y1="30" x2="36" y2="32" stroke="#2563EB" stroke-width="1"/>
</svg> 